Coordinates
version=1
nRows=14
nColumns=40
inDegrees=yes

Units are S.I. units (second, meters, Newtons, ...)
Angles are in degrees.

endheader
time	pelvis_tilt	pelvis_list	pelvis_rotation	pelvis_tx	pelvis_ty	pelvis_tz	hip_flexion_r	hip_adduction_r	hip_rotation_r	knee_angle_r	knee_angle_r_beta	ankle_angle_r	subtalar_angle_r	mtp_angle_r	hip_flexion_l	hip_adduction_l	hip_rotation_l	knee_angle_l	knee_angle_l_beta	ankle_angle_l	subtalar_angle_l	mtp_angle_l	lumbar_extension	lumbar_bending	lumbar_rotation	arm_flex_r	arm_add_r	arm_rot_r	elbow_flex_r	pro_sup_r	wrist_flex_r	wrist_dev_r	arm_flex_l	arm_add_l	arm_rot_l	elbow_flex_l	pro_sup_l	wrist_flex_l	wrist_dev_l
      0.00000000	     -3.84184893	     -0.39274494	      5.64351036	     -1.07346547	      0.88305185	     -1.42171515	     -2.03152756	     -0.35668185	     -5.90163956	    -32.58533783	     -0.56872143	      8.03014392	     -1.34312919	     -2.49259827	     30.11792343	      2.45983146	      6.82616331	    -31.32515412	     -0.54672708	      2.08273659	     11.07892971	     -0.03133829	      0.40716807	     -2.85532263	      0.54789623	      2.30436584	     -7.89110452	    -11.51529253	     35.02306479	     89.95437384	      0.00000000	      0.00000000	     -6.10798548	      8.05818116	     15.47446845	     22.24407113	     89.95437384	      0.00000000	      0.00000000
      0.01000000	     -3.64934066	     -0.48230888	      5.78779711	     -1.06599721	      0.88432598	     -1.42482897	     -1.69009434	     -0.46694771	     -6.08826741	    -34.26996032	     -0.59812364	      6.70422464	     -1.47866279	     -2.27880444	     29.50280960	      2.37895918	      6.76063229	    -31.56555139	     -0.55092280	      2.24537101	     10.71910244	     -0.00302596	      0.23881512	     -2.78321851	      0.16084762	      2.01618185	     -7.85060200	    -11.54142312	     34.78241680	     89.95437384	      0.00000000	      0.00000000	     -5.86296955	      8.17480495	     15.44448412	     22.35870237	     89.95437384	      0.00000000	      0.00000000
      0.02000000	     -3.55338976	     -0.55033136	      5.88689253	     -1.05875861	      0.88551472	     -1.42799419	     -1.01850187	     -0.73345474	     -6.60128060	    -36.21217122	     -0.63202162	      4.80746677	     -1.74792883	     -1.94813175	     28.88406311	      2.25181272	      6.73325307	    -31.58758393	     -0.55130734	      2.59514610	     10.36089632	      0.02083083	      0.17402491	     -2.73120666	     -0.10258469	      1.73664672	     -7.83729352	    -11.60285411	     34.46956237	     89.95437384	      0.00000000	      0.00000000	     -5.54347811	      8.27278707	     15.49068661	     22.46082793	     89.95437384	      0.00000000	      0.00000000
      0.03000000	     -3.95023827	     -0.25290727	      6.00906123	     -1.05187189	      0.88607447	     -1.43157665	      0.37576344	     -1.57520462	     -7.32055849	    -38.46690298	     -0.67137411	      2.27485061	     -2.71572463	     -1.04633624	     28.66913373	      1.49789565	      6.44003176	    -31.40630659	     -0.54814346	      2.97447363	     10.98503184	      0.40534258	      0.64039968	     -3.11165539	     -0.40198914	      1.42959473	     -7.75281469	    -11.69679115	     34.07440790	     89.95437384	      0.00000000	      0.00000000	     -5.10428942	      8.28315644	     16.27724453	     22.22558264	     89.95437384	      0.00000000	      0.00000000
      0.04000000	     -3.95892971	     -0.35878629	      6.17406671	     -1.04476425	      0.88700929	     -1.43477027	      1.29838055	     -1.83307661	     -7.81043329	    -40.46540246	     -0.70625451	     -0.12774100	     -3.13984362	     -0.46189025	     28.12851582	      1.38971963	      6.49722278	    -31.35761321	     -0.54729360	      3.38737358	     10.82607199	      0.52045907	      0.68936380	     -3.02644905	     -0.74630814	      1.11259259	     -7.78050015	    -11.56167770	     33.82010129	     89.95437384	      0.00000000	      0.00000000	     -4.79975240	      8.38941699	     16.41129252	     22.40357887	     89.95437384	      0.00000000	      0.00000000
      0.05000000	     -4.00945513	     -0.45907525	      6.33602384	     -1.03814736	      0.88780234	     -1.43801235	      2.38123008	     -2.06401284	     -8.08800182	    -42.50006976	     -0.74176615	     -2.66739380	     -3.63424619	      0.16167958	     27.61572025	      1.24192997	      6.49219294	    -31.18018748	     -0.54419693	      3.69723427	     10.49087935	      0.62324980	      0.71887813	     -2.93049198	     -1.09018020	      0.83295200	     -7.85333179	    -11.38848194	     33.59494704	     89.95437384	      0.00000000	      0.00000000	     -4.43409512	      8.46918659	     16.60866673	     22.62733949	     89.95437384	      0.00000000	      0.00000000
      0.06000000	     -4.04973223	     -0.57215069	      6.43900077	     -1.03161082	      0.88848631	     -1.44105101	      3.48444853	     -2.22593538	     -8.15483262	    -44.46017384	     -0.77597642	     -5.20683018	     -4.22588130	      0.80457524	     27.11933237	      1.18840092	      6.65103855	    -31.10129788	     -0.54282005	      4.16671057	     10.37522930	      0.69850885	      0.72854241	     -2.81316296	     -1.36514323	      0.57726111	     -7.92969892	    -11.23578620	     33.34550358	     89.95437384	      0.00000000	      0.00000000	     -4.01381468	      8.54926556	     16.83281064	     22.84962175	     89.95437384	      0.00000000	      0.00000000
      0.07000000	     -4.20311481	     -0.72131719	      6.48980310	     -1.02547322	      0.88890547	     -1.44370612	      4.86240063	     -2.16363523	     -7.82067692	    -46.55386581	     -0.81251824	     -7.02926050	     -5.48120847	      1.78421576	     26.80685889	      1.19913246	      6.71845390	    -31.04743908	     -0.54188004	      4.32336431	     10.06303038	      0.98077366	      0.81619383	     -2.69221932	     -1.61669394	      0.37353117	     -7.95961064	    -11.09471367	     33.10228453	     89.95437384	      0.00000000	      0.00000000	     -3.55925162	      8.61837730	     17.35729917	     23.12885644	     89.95437384	      0.00000000	      0.00000000
      0.08000000	     -3.93398488	     -0.97642889	      6.76209428	     -1.01899773	      0.88974620	     -1.44640538	      5.58008854	     -1.91298780	     -7.69944723	    -48.31467557	     -0.84325017	     -7.67255893	     -5.37114720	      1.83191305	     26.06670180	      1.35137084	      6.77885733	    -31.03760018	     -0.54170832	      4.56511180	      9.68706762	      0.95191558	      0.44241176	     -2.41557105	     -2.09233321	      0.19171366	     -7.96784640	    -11.00464921	     33.00178559	     89.95437384	      0.00000000	      0.00000000	     -3.14000682	      8.82176482	     17.28934506	     23.53112492	     89.95437384	      0.00000000	      0.00000000
      0.09000000	     -4.12084399	     -0.81541411	      6.55637971	     -1.01303260	      0.88993412	     -1.44875218	      7.18051331	     -2.28240235	     -7.49881316	    -50.59083646	     -0.88297667	     -8.66044824	     -7.18792062	      2.62360305	     25.67621573	      1.12658856	      7.13594048	    -30.93721269	     -0.53995622	      5.30264586	      9.51155436	      1.02867300	      0.53501682	     -2.63405438	     -2.04214705	      0.11829451	     -7.98113007	    -10.83406675	     32.51933383	     89.95437384	      0.00000000	      0.00000000	     -2.65341220	      8.97052797	     17.58934857	     23.88238018	     89.95437384	      0.00000000	      0.00000000
      0.10000000	     -4.08129938	     -0.74953532	      6.66531394	     -1.00688731	      0.89025603	     -1.45147454	      8.34322254	     -2.53471759	     -7.68755571	    -52.54500620	     -0.91708336	     -8.40292958	     -9.31576460	      3.34075247	     25.09704979	      0.95957221	      7.40263939	    -30.86549141	     -0.53870445	      5.75740920	      9.09727924	      1.04880693	      0.40105681	     -2.69795952	     -2.36313756	      0.02731116	     -8.02911239	    -10.57433894	     32.12131364	     89.95437384	      0.00000000	      0.00000000	     -2.19999439	      9.17547913	     17.66608863	     24.28646365	     89.95437384	      0.00000000	      0.00000000
      0.11000000	     -3.77995121	     -0.70513346	      6.76843635	     -1.00074648	      0.89098854	     -1.45360204	      9.16918990	     -2.73015181	     -8.09060107	    -54.20136028	     -0.94599220	     -7.80205702	    -11.05826772	      3.75818379	     24.33096448	      0.85001151	      7.39627038	    -30.98259010	     -0.54074821	      6.21478140	      8.83400430	      1.01924831	     -0.08078765	     -2.77999203	     -2.59165576	     -0.02329970	     -7.95626979	    -10.47300886	     31.70069772	     89.95437384	      0.00000000	      0.00000000	     -1.61243278	      9.48727001	     17.70036250	     24.65692574	     89.95437384	      0.00000000	      0.00000000
      0.12000000	     -3.64177514	     -0.84875104	      6.86506361	     -0.99472815	      0.89151497	     -1.45555472	     10.28180332	     -2.57094326	     -8.35038386	    -55.87013979	     -0.97511789	     -6.05734128	    -13.04000288	     16.83546208	     23.76557514	      0.92956263	      7.36257676	    -31.04703668	     -0.54187301	      6.71869119	      8.49187034	      2.32396058	     -0.34389433	     -2.66360970	     -2.87541501	     -0.08018827	     -7.88502431	    -10.46432798	     31.38315299	     89.95437384	      0.00000000	      0.00000000	     -1.13768322	      9.75804003	     17.72270090	     25.17104431	     89.95437384	      0.00000000	      0.00000000
      0.13000000	     -3.33931747	     -0.80343801	      7.04357900	     -0.98852897	      0.89221901	     -1.45782630	     11.01728894	     -2.76510474	     -8.76393654	    -57.10919518	     -0.99674349	     -5.22606614	    -14.34975181	     16.73939380	     22.98007514	      0.77556998	      7.26823753	    -31.08814663	     -0.54259052	      7.18034076	      8.28263400	      2.22939343	     -0.78641812	     -2.70842241	     -3.22448400	     -0.09610548	     -7.81128909	    -10.48737402	     30.91720903	     89.95437384	      0.00000000	      0.00000000	     -0.59048922	     10.05017390	     17.74181453	     25.58276669	     89.95437384	      0.00000000	      0.00000000
